<svg viewBox="0 0 400 400" version="1.1" xmlns="http://www.w3.org/2000/svg">
     <g transform="matrix(1.4197411,0,0,1.4197411,-97.344187,-100.77002)">
          <path d="m 190.672,99.446 c 11.611,-6.703 25.916,-6.703 37.526,0 19.467,11.239 49.732,28.713 69.199,39.952 11.61,6.704 18.763,19.092 18.763,32.499 V 251.8 c 0,13.407 -7.153,25.795 -18.763,32.499 -19.467,11.239 -49.732,28.713 -69.199,39.952 -11.61,6.703 -25.915,6.703 -37.526,0 -19.466,-11.239 -49.732,-28.713 -69.198,-39.952 -11.611,-6.704 -18.763,-19.092 -18.763,-32.499 v -79.903 c 0,-13.407 7.152,-25.795 18.763,-32.499 19.466,-11.239 49.732,-28.713 69.198,-39.952 z"
               style="fill:none;stroke:url(#_Linear1);stroke-width:46.91px" />
     </g>
     <defs>
          <linearGradient id="_Linear1" x1="0" y1="0" x2="1" y2="0" gradientUnits="userSpaceOnUse"
               gradientTransform="matrix(213.449,238.335,-238.335,213.449,102.711,92.681)">
               <stop offset="0" style="stop-color:rgb(191,97,106);stop-opacity:1" />
               <stop offset="1" style="stop-color:rgb(235,203,139);stop-opacity:1" />
          </linearGradient>
     </defs>
</svg>
